<?xml version="1.0" standalone="no"?>
<!DOCTYPE svg PUBLIC "-//W3C//DTD SVG 20010904//EN"
 "http://www.w3.org/TR/2001/REC-SVG-20010904/DTD/svg10.dtd">
<svg version="1.0" xmlns="http://www.w3.org/2000/svg"
 width="268.000000pt" height="268.000000pt" viewBox="0 0 268.000000 268.000000"
 preserveAspectRatio="xMidYMid meet">
<metadata>
Created by potrace 1.14, written by Peter Selinger 2001-2017
</metadata>
<g transform="translate(0.000000,268.000000) scale(0.100000,-0.100000)"
fill="#000000" stroke="none">
<path d="M30 2665 c0 -8 -7 -15 -15 -15 -13 0 -15 -152 -15 -1310 0 -1158 2
-1310 15 -1310 8 0 15 -7 15 -15 0 -13 152 -15 1310 -15 1158 0 1310 2 1310
15 0 8 7 15 15 15 13 0 15 152 15 1310 0 1158 -2 1310 -15 1310 -8 0 -15 7
-15 15 0 13 -152 15 -1310 15 -1158 0 -1310 -2 -1310 -15z m2580 -40 c0 -8 7
-15 15 -15 13 0 15 -148 15 -1270 0 -1122 -2 -1270 -15 -1270 -8 0 -15 -7 -15
-15 0 -13 -148 -15 -1270 -15 -1122 0 -1270 2 -1270 15 0 8 -7 15 -15 15 -13
0 -15 148 -15 1270 0 1122 2 1270 15 1270 8 0 15 7 15 15 0 13 148 15 1270 15
1122 0 1270 -2 1270 -15z"/>
<path d="M808 1878 l-3 -123 -117 -3 -118 -3 0 -524 0 -525 120 0 120 0 0
-120 0 -120 525 0 524 0 3 118 3 117 123 3 122 3 0 279 0 279 -122 3 -123 3 0
85 0 85 123 3 122 3 0 279 0 280 -650 0 -649 0 -3 -122z m1162 -163 l0 -145
-490 0 -490 0 0 -95 0 -95 368 -2 367 -3 3 -122 3 -123 119 0 120 0 0 -145 0
-144 -117 -3 -118 -3 -3 -123 -3 -122 -392 2 -392 3 -5 120 -5 120 -117 3
-118 3 0 389 0 390 120 0 120 0 0 120 0 120 515 0 515 0 0 -145z"/>
<path d="M992 983 l3 -98 343 -3 342 -2 0 100 0 100 -345 0 -346 0 3 -97z"/>
</g>
</svg>
